HIERARCHY
ROOT Hips
{
	OFFSET -13.091600 -28.302996 44.698402
	CHANNELS 6 Xposition Yposition Zposition Zrotation Xrotation Yrotation
	JOINT Chest
	{
		OFFSET -0.673000 0.623899 5.369202
		CHANNELS 6 Xposition Yposition Zposition Zrotation Xrotation Yrotation
		JOINT Chest2
		{
			OFFSET 0.000000 0.000000 4.415001
			CHANNELS 6 Xposition Yposition Zposition Zrotation Xrotation Yrotation
			JOINT Neck
			{
				OFFSET 0.000000 0.000002 10.273300
				CHANNELS 6 Xposition Yposition Zposition Zrotation Xrotation Yrotation
				JOINT Head
				{
					OFFSET 0.000000 0.000000 2.173897
					CHANNELS 6 Xposition Yposition Zposition Zrotation Xrotation Yrotation
					End Site
					{
						OFFSET 0.000000 0.000000 9.961800
					}
				}
			}
			JOINT LeftCollar
			{
				OFFSET 2.359900 -0.565201 5.928101
				CHANNELS 6 Xposition Yposition Zposition Zrotation Xrotation Yrotation
				JOINT LeftShoulder
				{
					OFFSET 5.443700 0.000000 0.000000
					CHANNELS 6 Xposition Yposition Zposition Zrotation Xrotation Yrotation
					JOINT LeftElbow
					{
						OFFSET 0.000000 0.000000 -10.615799
						CHANNELS 6 Xposition Yposition Zposition Zrotation Xrotation Yrotation
						JOINT LeftWrist
						{
							OFFSET 0.000000 -0.000002 -13.110302
							CHANNELS 6 Xposition Yposition Zposition Zrotation Xrotation Yrotation
							End Site
							{
								OFFSET 0.000000 0.000000 -2.173901
							}
						}
					}
				}
			}
			JOINT RightCollar
			{
				OFFSET -2.636600 -1.718800 6.889698
				CHANNELS 6 Xposition Yposition Zposition Zrotation Xrotation Yrotation
				JOINT RightShoulder
				{
					OFFSET -4.139101 0.000000 0.000000
					CHANNELS 6 Xposition Yposition Zposition Zrotation Xrotation Yrotation
					JOINT RightElbow
					{
						OFFSET 0.000000 0.000000 -10.471802
						CHANNELS 6 Xposition Yposition Zposition Zrotation Xrotation Yrotation
						JOINT RightWrist
						{
							OFFSET 0.000000 0.000000 -12.281898
							CHANNELS 6 Xposition Yposition Zposition Zrotation Xrotation Yrotation
							End Site
							{
								OFFSET 0.000000 -0.000002 -2.173901
							}
						}
					}
				}
			}
		}
	}
	JOINT LeftHip
	{
		OFFSET 2.273400 0.176701 -2.518002
		CHANNELS 6 Xposition Yposition Zposition Zrotation Xrotation Yrotation
		JOINT LeftKnee
		{
			OFFSET 0.000000 -0.000002 -20.456402
			CHANNELS 6 Xposition Yposition Zposition Zrotation Xrotation Yrotation
			JOINT LeftAnkle
			{
				OFFSET 0.000000 -0.000002 -16.635300
				CHANNELS 6 Xposition Yposition Zposition Zrotation Xrotation Yrotation
				End Site
				{
					OFFSET 0.000000 -8.812399 0.000001
				}
			}
		}
	}
	JOINT RightHip
	{
		OFFSET -1.914800 0.018101 -2.699299
		CHANNELS 6 Xposition Yposition Zposition Zrotation Xrotation Yrotation
		JOINT RightKnee
		{
			OFFSET 0.000000 -0.000002 -20.148901
			CHANNELS 6 Xposition Yposition Zposition Zrotation Xrotation Yrotation
			JOINT RightAnkle
			{
				OFFSET 0.000000 -0.000002 -16.838301
				CHANNELS 6 Xposition Yposition Zposition Zrotation Xrotation Yrotation
				End Site
				{
					OFFSET 0.000000 -8.328398 0.000001
				}
			}
		}
	}
}
MOTION
Frames: 10
Frame Time: 0.041667
-31.081999 -10.131094 35.511703 3335.270765 20.664193 -6.554600 -0.672999 0.623897 5.369204 6.191749 51.431550 0.519037 0.000001 -0.000006 4.415006 0.372257 -5.490488 -0.540442 -0.000003 0.000002 10.273300 -12.898624 11.033206 9.702355 -0.000001 -0.000006 2.173899 -0.889808 -4.670698 -5.638412 2.359899 -0.565203 5.928097 -9.917969 14.997709 1.239638 5.443703 0.000001 0.000004 -136.719678 335.638610 -202.145801 0.000014 -0.000005 -10.615801 897.765419 -198.422227 294.042649 0.000001 0.000011 -13.110304 -2484.138271 159.732334 -224.112071 -2.636600 -1.718801 6.889699 217.563231 -213.491851 169.603159 -4.139096 0.000000 0.000001 208.764773 -164.890493 581.203691 -0.000000 -0.000001 -10.471801 12.135316 -3.919231 -360.335837 0.000005 -0.000002 -12.281898 26.131320 6.230503 15.709058 2.273400 0.176703 -2.518001 -465.230358 -136.596899 -109.373035 0.000003 -0.000003 -20.456398 760.337970 161.342018 -76.222896 -0.000003 -0.000008 -16.635300 -287.868021 -9.298730 35.003593 -1.914799 0.018109 -2.699299 87.250981 214.777908 104.677942 0.000005 -0.000001 -20.148897 -736.786549 -222.838774 73.090134 -0.000001 -0.000004 -16.838301 1022.913719 -0.499870 -17.928593
-31.054800 -10.170094 35.334305 3335.467038 21.172465 -6.992756 -0.673003 0.623887 5.369200 5.764535 51.379173 0.961113 0.000000 -0.000004 4.414999 0.573030 -5.543742 -0.548240 -0.000006 0.000001 10.273300 -13.193590 11.285548 9.835974 -0.000002 0.000005 2.173907 -0.844796 -4.595882 -5.761889 2.359900 -0.565192 5.928102 -10.511167 15.332132 1.368157 5.443699 0.000009 -0.000001 -136.288884 335.985857 -202.231492 0.000012 0.000002 -10.615799 897.307523 -198.820304 294.931612 -0.000001 0.000004 -13.110298 -2484.453881 159.342822 -224.609774 -2.636602 -1.718798 6.889699 217.678143 -213.741768 169.445874 -4.139102 -0.000001 0.000009 209.281408 -165.404410 582.038231 -0.000002 -0.000006 -10.471806 10.863979 -3.777736 -360.371436 -0.000002 -0.000004 -12.281895 27.003599 6.279482 15.654266 2.273398 0.176699 -2.518002 -464.407402 -136.761547 -108.102818 0.000003 -0.000002 -20.456392 760.181367 161.666684 -75.924034 -0.000002 -0.000006 -16.635302 -287.505885 -9.205585 35.009654 -1.914799 0.018100 -2.699299 86.514174 214.971817 103.523620 0.000002 -0.000003 -20.148907 -736.404932 -221.833192 72.650926 -0.000005 -0.000002 -16.838297 1022.200647 -0.755375 -18.826353
-31.029003 -10.207392 35.148304 3335.798821 21.283250 -7.448559 -0.673002 0.623891 5.369207 5.242248 51.680462 1.264656 -0.000000 -0.000001 4.415008 0.776745 -5.599592 -0.558729 -0.000002 -0.000009 10.273303 -13.514046 11.480461 9.983769 -0.000001 -0.000002 2.173902 -0.780010 -4.516077 -5.915708 2.359900 -0.565213 5.928101 -10.812869 15.387716 1.670700 5.443699 -0.000004 -0.000003 -136.254802 336.269091 -202.232708 0.000013 -0.000000 -10.615799 896.925579 -198.698017 295.826694 -0.000002 0.000006 -13.110302 -2484.236189 159.185195 -225.147965 -2.636600 -1.718809 6.889700 217.759736 -213.898507 169.293137 -4.139099 -0.000000 0.000001 209.687108 -165.992066 582.788623 -0.000004 -0.000000 -10.471803 9.708027 -3.638645 -360.405914 -0.000002 -0.000003 -12.281900 27.787272 6.344187 15.566751 2.273399 0.176697 -2.518001 -464.094579 -136.975646 -107.297702 0.000007 -0.000006 -20.456398 760.046840 161.981406 -75.595666 -0.000005 -0.000007 -16.635300 -287.247157 -9.002823 35.060949 -1.914803 0.018103 -2.699294 85.810959 215.121726 102.786424 0.000000 -0.000003 -20.148903 -736.018617 -220.806123 72.204266 -0.000001 -0.000003 -16.838299 1021.495444 -1.039886 -19.762486
-31.005804 -10.243891 34.952705 3336.133664 21.855806 -7.885054 -0.673004 0.623892 5.369203 4.904904 51.511774 1.464147 0.000002 -0.000001 4.415007 0.917693 -5.649465 -0.569030 -0.000001 -0.000005 10.273305 -13.870736 11.622978 10.107342 0.000000 -0.000005 2.173901 -0.718304 -4.429641 -6.095669 2.359900 -0.565201 5.928097 -11.079249 15.424456 1.891565 5.443700 -0.000006 0.000001 -136.296712 336.396352 -202.365459 0.000009 0.000000 -10.615799 896.741656 -198.336331 296.759698 0.000000 0.000005 -13.110298 -2483.837961 159.169677 -225.646159 -2.636600 -1.718805 6.889699 217.799365 -213.907701 169.075104 -4.139100 -0.000005 -0.000002 210.035912 -166.751419 583.492515 0.000000 -0.000001 -10.471798 8.580932 -3.488616 -360.426323 -0.000003 -0.000002 -12.281900 28.504944 6.360156 15.402782 2.273395 0.176705 -2.518008 -463.258783 -137.070299 -105.835345 0.000003 -0.000004 -20.456398 759.904225 162.293272 -75.249014 -0.000007 -0.000006 -16.635298 -287.025968 -8.776315 35.165874 -1.914801 0.018103 -2.699297 84.805746 215.196202 101.455828 0.000001 -0.000003 -20.148907 -735.639405 -219.818860 71.749423 -0.000001 -0.000003 -16.838299 1020.834609 -1.324662 -20.707493
-30.985405 -10.279295 34.746304 3336.484463 22.482203 -8.296846 -0.673005 0.623893 5.369195 4.783607 51.283543 1.464082 0.000003 -0.000005 4.415001 0.987035 -5.675474 -0.574280 -0.000002 0.000005 10.273302 -14.206927 11.693794 10.194386 -0.000001 -0.000001 2.173897 -0.691696 -4.336385 -6.233033 2.359900 -0.565197 5.928094 -10.738043 15.362760 1.850170 5.443701 0.000005 -0.000004 -136.968953 336.370096 -202.463691 -0.000000 -0.000003 -10.615800 896.625051 -197.905537 297.667676 0.000002 0.000010 -13.110294 -2483.455471 159.271706 -226.117292 -2.636600 -1.718791 6.889695 217.833475 -213.837677 168.756612 -4.139098 -0.000007 0.000010 210.465599 -167.722726 584.240940 -0.000003 0.000000 -10.471796 10.819406 -3.432129 -360.175655 0.000003 -0.000002 -12.281899 25.675122 6.361387 15.047955 2.273394 0.176709 -2.518011 -462.349056 -137.112346 -104.274080 0.000003 -0.000005 -20.456390 759.780572 162.535047 -74.884261 -0.000003 -0.000008 -16.635300 -286.881168 -8.569782 35.303612 -1.914804 0.018108 -2.699304 83.762476 215.292057 100.031918 -0.000000 -0.000002 -20.148901 -735.306419 -219.051229 71.242568 -0.000001 -0.000001 -16.838299 1020.324257 -1.528804 -21.385327
-30.968002 -10.309397 34.528404 3336.838758 23.163565 -8.683444 -0.673000 0.623901 5.369205 5.085106 50.996559 1.141937 0.000003 0.000005 4.415006 0.891117 -5.676446 -0.573980 -0.000001 -0.000000 10.273301 -14.544760 11.706471 10.209155 -0.000003 -0.000005 2.173899 -0.694350 -4.219321 -6.328407 2.359897 -0.565199 5.928100 -10.898719 15.466530 1.783093 5.443697 -0.000002 0.000000 -137.535367 336.473369 -202.832644 0.000005 -0.000006 -10.615797 896.397852 -197.386976 298.530657 -0.000002 0.000007 -13.110298 -2482.966539 159.384800 -226.601621 -2.636602 -1.718802 6.889698 217.651341 -213.494488 168.411974 -4.139101 -0.000002 0.000001 211.041535 -169.024260 584.930625 0.000001 -0.000006 -10.471793 9.968150 -3.248010 -360.148307 -0.000001 -0.000001 -12.281900 25.816542 6.262824 14.669351 2.273399 0.176715 -2.518002 -461.355783 -137.096759 -102.611435 -0.000002 -0.000005 -20.456394 759.702270 162.683372 -74.497119 -0.000003 -0.000007 -16.635300 -286.799561 -8.371140 35.368553 -1.914798 0.018114 -2.699294 82.656231 215.367763 98.499483 0.000003 -0.000003 -20.148903 -734.985346 -218.434641 70.695169 -0.000002 -0.000000 -16.838301 1019.925047 -1.671868 -21.865327
-30.953510 -10.335093 34.297108 3337.188027 23.903700 -9.025106 -0.673002 0.623898 5.369204 5.242472 50.604721 0.849069 0.000000 0.000002 4.415008 0.913961 -5.678051 -0.576275 -0.000000 0.000005 10.273309 -14.802434 11.684148 10.274835 -0.000000 -0.000008 2.173903 -0.737982 -4.082948 -6.380556 2.359898 -0.565197 5.928104 -11.014576 15.467126 1.797508 5.443697 0.000001 -0.000005 -138.106206 336.540742 -203.156245 0.000004 -0.000004 -10.615803 896.205787 -196.794866 299.418800 0.000002 0.000003 -13.110299 -2482.310840 159.525543 -227.158090 -2.636600 -1.718799 6.889703 217.349119 -213.212141 168.260658 -4.139100 -0.000002 0.000003 213.627977 -172.456088 585.759865 -0.000000 -0.000003 -10.471796 6.528596 -3.206512 -360.053559 -0.000001 -0.000005 -12.281902 25.635051 6.132330 14.198877 2.273396 0.176704 -2.518004 -460.256177 -137.033621 -100.858828 0.000002 -0.000003 -20.456396 759.656426 162.935898 -74.118563 -0.000007 -0.000008 -16.635302 -286.671318 -8.233714 35.502183 -1.914804 0.018108 -2.699297 81.484307 215.366929 96.854179 0.000004 -0.000006 -20.148909 -734.673889 -217.820921 70.140449 -0.000002 -0.000000 -16.838301 1019.535015 -1.780890 -22.271811
-30.941809 -10.355995 34.049408 3337.534672 24.694988 -9.329096 -0.673004 0.623899 5.369207 5.847569 50.145593 0.257894 0.000001 -0.000004 4.415014 0.725574 -5.681075 -0.575935 -0.000002 0.000006 10.273302 -15.072286 11.653452 10.274815 -0.000003 -0.000002 2.173899 -0.784060 -3.936818 -6.386207 2.359899 -0.565194 5.928104 -11.011739 15.499297 1.632097 5.443697 0.000005 0.000010 -139.036656 336.726168 -203.511169 0.000005 -0.000002 -10.615795 895.707074 -196.386763 300.287300 -0.000003 0.000009 -13.110295 -2481.869556 159.664811 -227.666557 -2.636601 -1.718800 6.889701 216.918544 -212.685711 168.060520 -4.139099 -0.000009 0.000001 213.376448 -172.886062 586.119023 0.000001 -0.000003 -10.471798 7.703132 -2.922729 -359.947308 -0.000005 -0.000003 -12.281898 25.187994 5.867445 13.585390 2.273395 0.176710 -2.518007 -459.009421 -136.942506 -98.951614 -0.000000 -0.000005 -20.456398 759.607959 163.151691 -73.697734 -0.000004 -0.000008 -16.635303 -286.574165 -8.091961 35.609154 -1.914802 0.018111 -2.699302 80.251212 215.308791 95.100235 0.000000 -0.000005 -20.148911 -734.376530 -217.223730 69.560771 -0.000002 0.000001 -16.838299 1019.161923 -1.848730 -22.559533
-30.932201 -10.370596 33.785103 3337.890279 25.528691 -9.611119 -0.673000 0.623889 5.369203 6.101498 49.586606 -0.138858 0.000003 0.000003 4.415002 0.692054 -5.706288 -0.582896 -0.000001 -0.000005 10.273300 -15.209532 11.611475 10.356106 -0.000001 -0.000001 2.173898 -0.855074 -3.764793 -6.333998 2.359901 -0.565200 5.928100 -10.883366 15.332339 1.558635 5.443701 -0.000004 0.000006 -140.045188 336.913998 -203.716157 0.000010 -0.000002 -10.615792 894.984166 -196.104703 301.187300 0.000001 0.000001 -13.110296 -2481.483568 159.799557 -228.225744 -2.636602 -1.718804 6.889700 216.423300 -212.233758 168.075465 -4.139101 -0.000001 -0.000007 213.269788 -173.239402 586.395564 -0.000001 -0.000007 -10.471803 9.052687 -2.655273 -359.969985 0.000001 -0.000003 -12.281899 24.550707 5.723952 13.056090 2.273398 0.176702 -2.518003 -457.592622 -136.971056 -96.884348 0.000003 -0.000004 -20.456398 759.434746 163.451741 -73.239982 -0.000003 -0.000005 -16.635302 -286.525561 -7.890827 35.726855 -1.914799 0.018101 -2.699300 78.954016 215.215368 93.240285 0.000003 -0.000003 -20.148899 -734.094908 -216.654762 68.942051 -0.000001 0.000003 -16.838299 1018.817463 -1.860180 -22.731404
-30.924902 -10.382296 33.503700 3338.267087 26.414211 -9.858111 -0.673002 0.623893 5.369208 6.187291 48.911548 -0.468584 0.000001 -0.000001 4.415000 0.729511 -5.780466 -0.599745 -0.000004 -0.000005 10.273301 -15.319214 11.578886 10.508605 -0.000000 -0.000000 2.173902 -0.917706 -3.558945 -6.270876 2.359899 -0.565201 5.928100 -10.648057 14.996160 1.594980 5.443697 -0.000001 0.000000 -141.029350 337.055000 -203.789472 0.000007 -0.000003 -10.615807 894.189187 -195.883241 302.164564 0.000000 0.000011 -13.110298 -2481.055616 159.922910 -228.808660 -2.636603 -1.718809 6.889699 215.864577 -211.744183 168.170582 -4.139099 0.000003 -0.000001 213.268122 -173.677244 586.592656 0.000002 -0.000002 -10.471799 10.534121 -2.391673 -359.997469 0.000003 -0.000004 -12.281897 23.755289 5.632924 12.576865 2.273398 0.176704 -2.517999 -456.097357 -136.934146 -94.697984 0.000006 -0.000001 -20.456400 759.327703 163.799862 -72.772018 -0.000001 -0.000005 -16.635302 -286.387619 -7.810326 35.844262 -1.914800 0.018105 -2.699296 77.606317 215.079693 91.288347 0.000002 -0.000003 -20.148905 -733.858419 -216.076955 68.300526 -0.000006 0.000000 -16.838303 1018.461747 -1.871612 -22.930055
